<svg xmlns="http://www.w3.org/2000/svg" viewBox="0 0 366.67 466.67">
  <defs>
    <style>
      .a {
        fill: #d1d3d4;
      }

      .b {
        fill: #999;
      }

      .c {
        fill: #666;
      }

      .d {
        fill: #ededee;
      }
    </style>
  </defs>
  <title>force</title>
  <circle class="a" cx="239.22" cy="59.88" r="7.28" transform="translate(125.98 278.94) rotate(-76.72)"/>
  <circle class="a" cx="273.28" cy="132.75" r="7.28" transform="translate(81.29 368.22) rotate(-76.72)"/>
  <path class="b" d="M150.8,88.43l5.62,1.45q0-.31,0-.63a5.87,5.87,0,1,0-.46,2.28l-5.61-1.46Z"/>
  <path class="a" d="M83.34,102a7.28,7.28,0,1,0,7.28,7.28A7.28,7.28,0,0,0,83.34,102Z"/>
  <path class="c" d="M82.1,137a7.37,7.37,0,0,0-3.39-.36A7.28,7.28,0,0,0,78.26,151a7.12,7.12,0,0,0,1.39.14,7.4,7.4,0,0,0,2-.29A7.27,7.27,0,0,0,82.1,137Z"/>
  <path class="a" d="M109.72,190a7.29,7.29,0,1,0,7.28,7.28A7.24,7.24,0,0,0,109.72,190Z"/>
  <path class="a" d="M82.56,171.62a7.14,7.14,0,0,0-3.4.12,7.27,7.27,0,1,0,6.76,12.45,7.16,7.16,0,0,0,2-2.8,7.27,7.27,0,0,0-5.31-9.77Z"/>
  <path d="M178.05,229.25a7.28,7.28,0,0,0-4.21-1.34,7.65,7.65,0,0,0-1.36.13,7.28,7.28,0,1,0,5.57,1.21Z"/>
  <path d="M230.53,175.47a7.28,7.28,0,1,0,7.28,7.28A7.22,7.22,0,0,0,230.53,175.47Z"/>
  <path class="a" d="M187.55,195.91a7.26,7.26,0,0,0-3.2-1.19,6.4,6.4,0,0,0-.88-.06,7.28,7.28,0,0,0,0,14.56,7.11,7.11,0,0,0,1.14-.1,7.27,7.27,0,0,0,2.94-13.21Z"/>
  <path class="a" d="M197.47,162l-.32,0a7,7,0,0,0-1.38.14,7.28,7.28,0,0,0,.54,14.37,7.73,7.73,0,0,0,.84.05,7.26,7.26,0,0,0,7.26-6.87c0-.14,0-.27,0-.41A7.27,7.27,0,0,0,197.47,162Z"/>
  <path class="a" d="M194.47,125.78a7.19,7.19,0,0,0-3.31.8,7.27,7.27,0,0,0,3,13.75l.32,0a7,7,0,0,0,1.38-.14,7.28,7.28,0,0,0-1.38-14.43Z"/>
  <path d="M180.72,57a5.87,5.87,0,0,0,0,11.73,5.71,5.71,0,0,0,2.76-.7,5.86,5.86,0,0,0-2.76-11Z"/>
  <path class="b" d="M150.8,88.43l-.42,1.64L156,91.53a5.73,5.73,0,0,0,.43-1.65Z"/>
  <g>
    <path class="d" d="M82.4,134.15,84,119.4c-.21,0-.42,0-.64,0a10,10,0,0,1-2.75-.39L79,133.79l.63,0A9.93,9.93,0,0,1,82.4,134.15Z"/>
    <path class="d" d="M82.43,168.73l-.65-15a9.93,9.93,0,0,1-2.13.23,8.93,8.93,0,0,1-1.27-.09L79,168.85a10,10,0,0,1,2.06-.21A11.75,11.75,0,0,1,82.43,168.73Z"/>
    <path class="d" d="M90.31,182.89a10.07,10.07,0,0,1-1.9,2.82l12.1,7.43a10.2,10.2,0,0,1,1.91-2.81Z"/>
    <path class="d" d="M178.18,210.55l-4.74,14.54.4,0a10,10,0,0,1,5.12,1.41l4.7-14.44h-.19A10,10,0,0,1,178.18,210.55Z"/>
    <path class="d" d="M207.15,170.74a10.15,10.15,0,0,1-1.5,4l15,5.93a10,10,0,0,1,1.75-3.88Z"/>
    <path class="d" d="M185.56,192a10,10,0,0,1,3.16,1.27l6.38-14.15a10.31,10.31,0,0,1-3.17-1.26Z"/>
    <path class="d" d="M197.26,159.14l-1.2-16.1a10.44,10.44,0,0,1-1.59.14h-.11l1.2,16.1a10.44,10.44,0,0,1,1.59-.13Z"/>
    <path class="d" d="M186.09,108.3l4.3,15.51a10.07,10.07,0,0,1,3.3-.82l-4.28-15.43A10.17,10.17,0,0,1,186.09,108.3Z"/>
    <path class="d" d="M185.91,88.11l-2.07-17.19a8.53,8.53,0,0,1-3.12.59,8.17,8.17,0,0,1-1.11-.08l2.11,17.42a10.14,10.14,0,0,1,3.83-.76Z"/>
    <path class="d" d="M159.17,90.6a8.4,8.4,0,0,1-.42,1.64l16.82,4.36A11.05,11.05,0,0,1,176,95Z"/>
  </g>
  <circle class="c" cx="185.55" cy="98.21" r="7.28" transform="translate(-17.6 45.26) rotate(-13.28)"/>
  <circle cx="180.72" cy="62.71" r="7.28" transform="translate(8.59 146.15) rotate(-45)"/>
  <circle class="a" cx="150.38" cy="89.21" r="7.28" transform="translate(-19.03 132.47) rotate(-45)"/>
</svg>
