<?xml version="1.0" encoding="utf-8"?>
<!-- Generator: Adobe Illustrator 22.1.0, SVG Export Plug-In . SVG Version: 6.00 Build 0)  -->
<svg version="1.1" id="Layer_1" xmlns="http://www.w3.org/2000/svg" xmlns:xlink="http://www.w3.org/1999/xlink" x="0px" y="0px"
	 viewBox="0 0 556.2 463.7" style="enable-background:new 0 0 556.2 463.7;" xml:space="preserve">
<style type="text/css">
	.st0{fill:#FFFFFF;}
	.st1{font-family:'GothamBlack';}
	.st2{font-size:37.95px;}
	.st3{letter-spacing:1;}
</style>
<title>ocadu-logo-vector</title>
<path class="st0" d="M355,463.7V340.3h201.2V0H216v108.9H0v231.4h216v123.4L355,463.7L355,463.7z M15.2,324.7V124.5H216v200.2H15.2z
	 M339.8,448.1H231.2V340.3h108.5L339.8,448.1L339.8,448.1z M540.6,324.8H231.2V15.6h309.4V324.8z"/>
<path class="st0" d="M73.2,209.4c-4.1,0-8.1-0.8-11.9-2.3c-3.5-1.4-6.7-3.5-9.4-6.1c-2.6-2.6-4.8-5.7-6.2-9.1
	c-1.5-3.5-2.3-7.3-2.3-11.1v-0.2c0-3.8,0.7-7.6,2.2-11.2c1.5-3.4,3.6-6.6,6.3-9.2c2.7-2.6,6-4.7,9.5-6.2c7.6-3,16.1-3,23.7,0
	c3.5,1.4,6.7,3.5,9.4,6.1c2.6,2.6,4.8,5.7,6.2,9.1c1.5,3.5,2.3,7.3,2.3,11.1v0.2c0,7.7-3.1,15-8.5,20.4c-2.7,2.6-6,4.7-9.5,6.2
	C81.3,208.7,77.2,209.5,73.2,209.4z M73.3,195.6c2,0,4-0.4,5.8-1.2c1.7-0.8,3.2-1.8,4.4-3.2c1.2-1.4,2.2-3,2.8-4.8
	c0.7-1.8,1-3.7,1-5.7v-0.2c0-1.9-0.3-3.9-1-5.7s-1.7-3.4-2.9-4.7c-1.3-1.4-2.8-2.5-4.5-3.3c-1.8-0.8-3.8-1.3-5.8-1.2
	c-2,0-3.9,0.4-5.8,1.2c-3.4,1.5-6,4.4-7.3,7.9c-0.7,1.8-1,3.7-1,5.7v0.2c0,1.9,0.3,3.9,1,5.7c0.7,1.7,1.6,3.3,2.9,4.7
	c1.3,1.4,2.8,2.5,4.5,3.3C69.3,195.2,71.3,195.6,73.3,195.6L73.3,195.6z"/>
<path class="st0" d="M160.5,209.4c-3.8,0-7.6-0.7-11.1-2.1c-3.4-1.4-6.5-3.4-9-6c-5.4-5.5-8.4-12.8-8.4-20.5v-0.2
	c0-7.7,3-15,8.3-20.4c2.6-2.6,5.8-4.7,9.2-6.1c3.7-1.5,7.7-2.2,11.7-2.2c2.6,0,5.2,0.2,7.8,0.8c4.3,1,8.3,3,11.6,6
	c1.5,1.4,2.9,3,4.1,4.7l-11.5,9c-1.4-1.9-3.2-3.5-5.2-4.8c-2.1-1.2-4.5-1.8-6.9-1.7c-1.8,0-3.7,0.4-5.3,1.1c-1.6,0.7-3,1.8-4.2,3.1
	c-1.2,1.4-2.1,3-2.7,4.7c-0.7,1.8-1,3.7-1,5.7v0.2c0,2,0.3,3.9,1,5.8c0.6,1.7,1.5,3.3,2.7,4.7c1.2,1.3,2.6,2.4,4.2,3.1
	c1.7,0.8,3.5,1.2,5.3,1.1c1.3,0,2.6-0.1,3.9-0.5c1.1-0.3,2.2-0.8,3.2-1.4c1-0.6,1.9-1.3,2.7-2.1c0.9-0.9,1.8-1.8,2.6-2.7l11.5,8.2
	c-1.3,1.8-2.7,3.4-4.3,5c-1.6,1.5-3.4,2.9-5.3,3.9c-2.1,1.2-4.3,2-6.6,2.6C166.1,209.1,163.3,209.5,160.5,209.4z"/>
<path class="st0" d="M134.8,239.6h21.3c4.5-0.1,9,0.6,13.2,2c3.6,1.2,7,3.1,9.8,5.7c2.6,2.4,4.7,5.4,6.1,8.6c1.4,3.5,2.1,7.2,2.1,11
	v0.2c0,3.8-0.7,7.6-2.1,11.1c-1.4,3.4-3.5,6.4-6.2,8.8c-2.9,2.6-6.3,4.6-9.9,5.8c-4.3,1.5-8.8,2.2-13.3,2.1h-21L134.8,239.6z
	 M156.4,281.3c4.6,0,8.3-1.2,11.1-3.6s4.2-5.9,4.2-10.4v-0.2c0-4.4-1.4-7.9-4.2-10.3s-6.5-3.7-11.1-3.7h-6.3v28.2H156.4z"/>
<path class="st0" d="M80.6,239.4H65.9l-23.5,55.7h16.1l3.6-8.9h22.2l3.6,8.9h16.4L80.6,239.4z M66.4,274.4l6.7-16.7l6.6,16.7H66.4z"
	/>
<path class="st0" d="M285.3,422c-3.4,0-6.8-0.4-10.1-1.4c-2.8-0.9-5.4-2.4-7.6-4.4c-2.2-2.1-3.8-4.6-4.8-7.5
	c-1.2-3.4-1.8-7-1.7-10.7v-29.4h14.8v29.1c0,3.8,0.9,6.6,2.6,8.4c1.8,1.9,4.4,2.9,7,2.7c2.6,0.1,5.1-0.8,7-2.6
	c1.7-1.7,2.6-4.5,2.6-8.1v-29.4h14.8v29c0.1,3.7-0.5,7.4-1.8,10.9c-2,5.8-6.7,10.2-12.6,11.9C292.2,421.6,288.8,422.1,285.3,422z"/>
<text transform="matrix(1 0 0 1 258.82 70.98)"><tspan x="0" y="0" class="st0 st1 st2 st3">VISUAL</tspan><tspan x="0" y="42" class="st0 st1 st2 st3">ANALYTICS</tspan><tspan x="0" y="84" class="st0 st1 st2 st3">LAB</tspan></text>
</svg>
