<svg xmlns="http://www.w3.org/2000/svg" viewBox="0 0 659.36 677.36">
  <defs>
    <style>
      .a, .c, .d, .e, .f, .g {
        stroke: #fff;
        stroke-miterlimit: 10;
      }

      .a {
        fill: #fff;
      }

      .a, .c {
        stroke-width: 0.25px;
      }

      .b {
        font-size: 11.17px;
        font-family: OpenSans-Semibold, Open Sans;
        font-weight: 700;
        letter-spacing: 0em;
        fill: #fff;
      }

      .c, .d, .e, .f, .g {
        fill: none;
      }

      .d {
        stroke-width: 0.5px;
      }

      .f {
        stroke-width: 1.5px;
      }

      .g {
        stroke-width: 0.75px;
      }
    </style>
  </defs>
  <title>trees</title>
  <g>
    <circle class="a" cx="77.41" cy="34.75" r="2.98"/>
    <circle class="a" cx="77.06" cy="22.26" r="2.98"/>
    <circle class="a" cx="106.8" cy="3.41" r="2.98"/>
    <circle class="a" cx="121.25" cy="3.41" r="2.98"/>
    <circle class="a" cx="140.1" cy="3.41" r="2.98"/>
    <circle class="a" cx="152.1" cy="3.41" r="2.98"/>
    <circle class="a" cx="166.55" cy="3.41" r="2.98"/>
    <circle class="a" cx="170.11" cy="14.86" r="2.98"/>
    <circle class="a" cx="170.11" cy="28.89" r="2.98"/>
    <circle class="a" cx="87.05" cy="3.41" r="2.98"/>
    <text class="b" transform="translate(73.37 140.6) scale(1.05 0.91)">FIGURATIVE TREES</text>
    <path class="c" d="M434.05,76.07" transform="translate(-353.66 -42.88)"/>
    <line class="d" x1="79.78" y1="23.48" x2="92.58" y2="28.89"/>
    <line class="d" x1="80.17" y1="33.63" x2="92.58" y2="28.89"/>
    <line class="d" x1="123.39" y1="49.6" x2="92.58" y2="28.89"/>
    <line class="d" x1="87.99" y1="6.39" x2="92.58" y2="28.89"/>
    <line class="d" x1="108.53" y1="5.83" x2="119.02" y2="16.98"/>
    <line class="d" x1="121.25" y1="6.39" x2="119.02" y2="16.98"/>
    <line class="d" x1="123.39" y1="49.6" x2="119.02" y2="16.98"/>
    <line class="d" x1="142.58" y1="22.26" x2="123.39" y2="49.6"/>
    <line class="d" x1="140.1" y1="6.39" x2="142.58" y2="22.26"/>
    <line class="d" x1="150.56" y1="5.96" x2="142.58" y2="22.26"/>
    <line class="d" x1="164.15" y1="5.16" x2="142.58" y2="22.26"/>
    <line class="d" x1="167.29" y1="15.82" x2="142.58" y2="22.26"/>
    <line class="d" x1="167.13" y1="28.09" x2="142.58" y2="22.26"/>
    <line class="d" x1="123.63" y1="96.83" x2="123.39" y2="49.6"/>
  </g>
  <g>
    <polyline class="d" points="304.94 42.67 304.79 25.75 304.95 8.12"/>
    <circle class="a" cx="279.92" cy="48.75" r="2.98"/>
    <circle class="a" cx="304.97" cy="3.11" r="2.98"/>
    <circle class="a" cx="304.97" cy="48.75" r="2.98"/>
    <circle class="a" cx="345.25" cy="48.75" r="2.98"/>
    <circle class="a" cx="345.25" cy="94" r="2.98"/>
    <circle class="a" cx="335.62" cy="94" r="2.98"/>
    <circle class="a" cx="325.28" cy="94" r="2.98"/>
    <circle class="a" cx="315.03" cy="94" r="2.98"/>
    <circle class="a" cx="304.97" cy="94" r="2.98"/>
    <circle class="a" cx="295.07" cy="94" r="2.98"/>
    <circle class="a" cx="284.99" cy="94" r="2.98"/>
    <circle class="a" cx="275.01" cy="94" r="2.98"/>
    <circle class="a" cx="355.37" cy="94" r="2.98"/>
    <circle class="a" cx="365.49" cy="94" r="2.98"/>
    <line class="d" x1="345.25" y1="54.44" x2="345.25" y2="88.33"/>
    <line class="d" x1="304.97" y1="54.43" x2="304.97" y2="88.32"/>
    <line class="d" x1="279.51" y1="54.44" x2="279.51" y2="71.39"/>
    <line class="d" x1="274.78" y1="71.53" x2="284.77" y2="71.53"/>
    <line class="d" x1="315.76" y1="71.54" x2="294.18" y2="71.54"/>
    <line class="d" x1="284.99" y1="70.96" x2="284.99" y2="87.91"/>
    <line class="d" x1="275.01" y1="70.96" x2="275.01" y2="87.91"/>
    <line class="d" x1="279.51" y1="26.1" x2="279.51" y2="43.05"/>
    <line class="d" x1="345.26" y1="26.1" x2="345.26" y2="43.05"/>
    <line class="d" x1="315.35" y1="70.96" x2="315.35" y2="87.91"/>
    <line class="d" x1="294.65" y1="70.96" x2="294.65" y2="87.91"/>
    <line class="d" x1="325.38" y1="71.54" x2="365.13" y2="71.54"/>
    <line class="d" x1="279" y1="26.1" x2="345.7" y2="26.1"/>
    <line class="d" x1="325.28" y1="70.96" x2="325.28" y2="87.91"/>
    <line class="d" x1="355.64" y1="70.96" x2="355.64" y2="87.91"/>
    <line class="d" x1="365.24" y1="70.96" x2="365.24" y2="87.91"/>
    <line class="d" x1="334.94" y1="70.96" x2="334.94" y2="87.91"/>
    <text class="b" transform="translate(270.48 140.6) scale(1.05 0.91)">VERTICAL TREES</text>
  </g>
  <g>
    <circle class="a" cx="472.45" cy="33.48" r="2.98"/>
    <circle class="a" cx="517.73" cy="33.48" r="2.98"/>
    <circle class="a" cx="517.73" cy="8.5" r="2.98"/>
    <circle class="a" cx="517.73" cy="73.84" r="2.98"/>
    <circle class="a" cx="562.68" cy="33.48" r="2.98"/>
    <circle class="a" cx="562.68" cy="43.61" r="2.98"/>
    <circle class="a" cx="562.68" cy="53.66" r="2.98"/>
    <circle class="a" cx="562.68" cy="63.75" r="2.98"/>
    <circle class="a" cx="562.68" cy="3.18" r="2.98"/>
    <circle class="a" cx="562.68" cy="13.37" r="2.98"/>
    <circle class="a" cx="562.68" cy="23.43" r="2.98"/>
    <circle class="a" cx="562.68" cy="73.84" r="2.98"/>
    <circle class="a" cx="562.68" cy="83.93" r="2.98"/>
    <circle class="a" cx="562.68" cy="94.02" r="2.98"/>
    <line class="d" x1="478.68" y1="33.48" x2="511.31" y2="33.48"/>
    <line class="d" x1="523.89" y1="33.48" x2="556.52" y2="33.48"/>
    <line class="d" x1="523.89" y1="73.84" x2="556.52" y2="73.84"/>
    <line class="d" x1="523.89" y1="8.5" x2="540.21" y2="8.5"/>
    <line class="d" x1="494.99" y1="8.28" x2="511.31" y2="8.28"/>
    <line class="d" x1="494.99" y1="73.84" x2="511.31" y2="73.84"/>
    <line class="d" x1="540.21" y1="2.6" x2="540.21" y2="13.96"/>
    <line class="d" x1="540.21" y1="22.86" x2="540.21" y2="44.18"/>
    <line class="d" x1="540.21" y1="53.09" x2="540.21" y2="94.58"/>
    <line class="d" x1="494.99" y1="7.75" x2="494.99" y2="74.36"/>
    <line class="d" x1="540.21" y1="3.18" x2="556.52" y2="3.18"/>
    <line class="d" x1="540.21" y1="13.37" x2="556.52" y2="13.37"/>
    <line class="d" x1="540.21" y1="23.43" x2="556.52" y2="23.43"/>
    <line class="d" x1="540.21" y1="43.61" x2="556.52" y2="43.61"/>
    <line class="d" x1="540.21" y1="53.66" x2="556.52" y2="53.66"/>
    <line class="d" x1="540.21" y1="63.75" x2="556.52" y2="63.75"/>
    <line class="d" x1="540.48" y1="83.93" x2="556.8" y2="83.93"/>
    <line class="d" x1="540.21" y1="94.02" x2="556.52" y2="94.02"/>
    <text class="b" transform="translate(467.38 140.41) scale(1.05 0.91)">HORIZONTALTREES</text>
  </g>
  <g>
    <circle class="a" cx="129.49" cy="192.97" r="2.98"/>
    <circle class="a" cx="110.18" cy="192.97" r="2.98"/>
    <circle class="a" cx="91.2" cy="192.97" r="2.98"/>
    <circle class="a" cx="77.34" cy="205.06" r="2.98"/>
    <circle class="a" cx="77.34" cy="221.39" r="2.98"/>
    <circle class="a" cx="110.18" cy="216.51" r="2.98"/>
    <circle class="a" cx="144.25" cy="238.43" r="2.98"/>
    <circle class="a" cx="148.16" cy="264.11" r="2.98"/>
    <circle class="a" cx="167.98" cy="266.35" r="2.98"/>
    <circle class="a" cx="155.56" cy="283.8" r="2.98"/>
    <circle class="a" cx="134.2" cy="283.8" r="2.98"/>
    <circle class="a" cx="88.21" cy="283.8" r="2.98"/>
    <circle class="a" cx="94.18" cy="267.74" r="2.98"/>
    <circle class="a" cx="77.34" cy="266.35" r="2.98"/>
    <line class="d" x1="141.61" y1="239.79" x2="96.61" y2="266.35"/>
    <line class="d" x1="141.88" y1="236.64" x2="112.46" y2="218.41"/>
    <line class="d" x1="112.16" y1="214.28" x2="127.17" y2="195.3"/>
    <line class="d" x1="110.18" y1="213.52" x2="110.18" y2="195.95"/>
    <line class="d" x1="108.26" y1="214.22" x2="93.09" y2="195.27"/>
    <line class="d" x1="107.2" y1="215.46" x2="80.33" y2="205.98"/>
    <line class="d" x1="107.2" y1="217.29" x2="80.33" y2="220.85"/>
    <line class="d" x1="147.11" y1="261.13" x2="144.99" y2="241.41"/>
    <line class="d" x1="165" y1="266.35" x2="151.14" y2="264.11"/>
    <line class="d" x1="154.31" y1="280.82" x2="149.35" y2="266.84"/>
    <line class="d" x1="135.8" y1="281.29" x2="146.05" y2="266.22"/>
    <line class="d" x1="89.36" y1="280.82" x2="92.88" y2="270.42"/>
    <line class="d" x1="80.33" y1="266.35" x2="91.2" y2="267.74"/>
    <text class="b" transform="translate(53.48 330.75) scale(1.05 0.91)">MULTIDIRECTONAL TREES</text>
  </g>
  <g>
    <circle class="d" cx="321.74" cy="239.46" r="24.07"/>
    <circle class="d" cx="322.61" cy="239.46" r="47.15"/>
    <line class="d" x1="321.74" y1="236.48" x2="321.74" y2="219.01"/>
    <line class="d" x1="322.86" y1="213.26" x2="328.12" y2="195.79"/>
    <line class="d" x1="320.63" y1="213.26" x2="315.92" y2="195.79"/>
    <line class="d" x1="304.3" y1="250.02" x2="319.04" y2="240.71"/>
    <line class="d" x1="324.21" y1="241.13" x2="339.49" y2="250.09"/>
    <line class="d" x1="364.81" y1="249.33" x2="345.15" y2="251.39"/>
    <line class="d" x1="359.99" y1="261.63" x2="344.73" y2="252.89"/>
    <line class="d" x1="351.85" y1="272.11" x2="343.17" y2="254.18"/>
    <line class="d" x1="302.62" y1="279.79" x2="301.32" y2="254.37"/>
    <line class="d" x1="291.35" y1="271.89" x2="300.19" y2="254.15"/>
    <line class="d" x1="283.46" y1="261.93" x2="298.74" y2="252.85"/>
    <line class="d" x1="298.79" y1="249.83" x2="277.52" y2="236.02"/>
    <line class="d" x1="278.81" y1="249.33" x2="298.34" y2="251.39"/>
    <circle class="a" cx="321.74" cy="216.03" r="2.98"/>
    <circle class="a" cx="321.74" cy="239.46" r="2.98"/>
    <circle class="a" cx="342.16" cy="251.39" r="2.98"/>
    <circle class="a" cx="353.34" cy="274.69" r="2.98"/>
    <circle class="a" cx="362.45" cy="263.31" r="2.98"/>
    <circle class="a" cx="367.79" cy="249.33" r="2.98"/>
    <circle class="a" cx="301.32" cy="251.39" r="2.98"/>
    <circle class="a" cx="302.62" cy="282.77" r="2.98"/>
    <circle class="a" cx="290.35" cy="274.69" r="2.98"/>
    <circle class="a" cx="280.83" cy="263.31" r="2.98"/>
    <circle class="a" cx="275.83" cy="249.33" r="2.98"/>
    <circle class="a" cx="274.87" cy="234.67" r="2.98"/>
    <circle class="a" cx="329.08" cy="193.49" r="2.98"/>
    <circle class="a" cx="314.82" cy="192.81" r="2.98"/>
    <text class="b" transform="translate(277.86 330.75) scale(1.05 0.91)">RADIAL TREES</text>
  </g>
  <g>
    <line class="d" x1="527.49" y1="194.11" x2="512.16" y2="207.55"/>
    <line class="d" x1="510.4" y1="206.39" x2="513.73" y2="193.49"/>
    <line class="d" x1="507.41" y1="206.63" x2="502.46" y2="195.49"/>
    <line class="e" x1="502.8" y1="226.9" x2="507.81" y2="213.78"/>
    <line class="f" x1="507.19" y1="235.85" x2="523.57" y2="240.96"/>
    <line class="g" x1="482.67" y1="240.95" x2="494.46" y2="236.34"/>
    <line class="c" x1="472.5" y1="243.88" x2="477.06" y2="242.33"/>
    <line class="c" x1="473.49" y1="251.37" x2="477.97" y2="244.47"/>
    <line class="d" x1="560.61" y1="225.55" x2="532.44" y2="239.35"/>
    <line class="d" x1="562.46" y1="238.53" x2="533.21" y2="241.06"/>
    <line class="d" x1="560.61" y1="252.08" x2="533.21" y2="243.88"/>
    <line class="d" x1="554.06" y1="264.7" x2="532.51" y2="245.37"/>
    <line class="d" x1="544.98" y1="274.71" x2="530.44" y2="246.75"/>
    <circle class="c" cx="504.2" cy="234.92" r="25.25"/>
    <circle class="c" cx="517.49" cy="239.06" r="47.33"/>
    <circle class="a" cx="563.01" cy="223.8" r="2.98"/>
    <circle class="a" cx="509.2" cy="210.11" r="3.92"/>
    <circle class="a" cx="500.73" cy="233.48" r="6.9"/>
    <circle class="a" cx="565.45" cy="238.53" r="2.98"/>
    <circle class="a" cx="563.59" cy="253.26" r="2.98"/>
    <circle class="a" cx="557.05" cy="266.48" r="2.98"/>
    <circle class="a" cx="546.49" cy="277.26" r="2.98"/>
    <circle class="a" cx="480.04" cy="242.33" r="2.98"/>
    <circle class="a" cx="472.5" cy="252.54" r="1.55"/>
    <circle class="a" cx="501.77" cy="194.11" r="1.55"/>
    <circle class="a" cx="514.21" cy="191.5" r="2.05"/>
    <circle class="a" cx="529.14" cy="192.56" r="2.27"/>
    <circle class="a" cx="470.95" cy="243.88" r="1.55"/>
    <circle class="a" cx="528.28" cy="242.33" r="4.93"/>
    <text class="b" transform="translate(469.21 330.56) scale(1.05 0.91)">HYPERBOLIC TREES</text>
  </g>
  <g>
    <rect class="d" x="85.66" y="355.56" width="37.35" height="46.93"/>
    <rect class="d" x="123.02" y="355.56" width="57.39" height="46.93"/>
    <rect class="d" x="85.66" y="402.49" width="95.21" height="47.39"/>
    <rect class="d" x="85.66" y="355.56" width="37.35" height="23.46"/>
    <rect class="d" x="85.66" y="378.6" width="37.35" height="23.46"/>
    <rect class="c" x="105.31" y="402.91" width="37.35" height="23.46"/>
    <rect class="c" x="105.31" y="426.18" width="37.35" height="23.46"/>
    <rect class="c" x="143.05" y="402.7" width="37.35" height="23.46"/>
    <rect class="c" x="143.05" y="426.37" width="37.35" height="23.46"/>
    <rect class="c" x="123.02" y="370.44" width="28.96" height="31.63"/>
    <rect class="c" x="151.98" y="370.44" width="28.43" height="31.63"/>
    <rect class="c" x="123.02" y="355.56" width="57.39" height="14.88"/>
    <text class="b" transform="translate(63.48 493.22) scale(1.05 0.91)">RECTANGULAR TREEMAPS</text>
  </g>
  <g>
    <rect class="g" x="282.81" y="355.56" width="95.85" height="94.09"/>
    <line class="g" x1="282.81" y1="412.1" x2="355.45" y2="391.76"/>
    <line class="g" x1="324.96" y1="355.56" x2="378.66" y2="419.31"/>
    <line class="c" x1="346.32" y1="382.34" x2="378.66" y2="372.42"/>
    <line class="c" x1="367.17" y1="405.67" x2="352.8" y2="430.67"/>
    <line class="c" x1="332.54" y1="424.75" x2="352.8" y2="430.67"/>
    <line class="c" x1="332.54" y1="424.75" x2="331.85" y2="398.37"/>
    <line class="c" x1="311.25" y1="433.16" x2="332.54" y2="424.75"/>
    <line class="c" x1="311.25" y1="433.16" x2="293.8" y2="409.02"/>
    <line class="c" x1="307.09" y1="449.06" x2="311.25" y2="433.16"/>
    <line class="c" x1="353.63" y1="449.06" x2="352.8" y2="430.67"/>
    <line class="c" x1="310.27" y1="380.08" x2="317.24" y2="401.93"/>
    <line class="c" x1="283.74" y1="376.67" x2="310.27" y2="380.08"/>
    <line class="c" x1="310.27" y1="380.08" x2="332.2" y2="365.55"/>
    <text class="b" transform="translate(268.33 493.22) scale(1.05 0.91)">VORONOI TREEMAPS</text>
  </g>
  <g>
    <circle class="e" cx="528.66" cy="402.6" r="46.66"/>
    <circle class="d" cx="522.38" cy="384.49" r="21.72"/>
    <circle class="d" cx="522.38" cy="427.73" r="15.98"/>
    <circle class="d" cx="553.6" cy="411.25" r="12.18"/>
    <circle class="c" cx="521.43" cy="371.58" r="3.85"/>
    <circle class="c" cx="521.43" cy="383.81" r="3.85"/>
    <circle class="c" cx="534.4" cy="382.47" r="4.16"/>
    <circle class="c" cx="527.91" cy="396.17" r="3.79"/>
    <circle class="c" cx="510.66" cy="389.44" r="4.16"/>
    <circle class="c" cx="552.38" cy="406.21" r="4.02"/>
    <circle class="c" cx="554.95" cy="416.72" r="4.16"/>
    <circle class="c" cx="520.82" cy="420.39" r="3.85"/>
    <circle class="c" cx="527.91" cy="431.15" r="3.79"/>
    <circle class="c" cx="516.96" cy="431.03" r="3.91"/>
    <text class="b" transform="translate(474.17 493.03) scale(1.05 0.91)">CIRCULAR TREEMAPS</text>
  </g>
  <g>
    <circle class="d" cx="133.27" cy="581.89" r="15.98"/>
    <circle class="d" cx="133.27" cy="581.89" r="31.97"/>
    <circle class="d" cx="133.27" cy="581.89" r="48.5"/>
    <line class="d" x1="133.27" y1="533.39" x2="133.27" y2="565.91"/>
    <line class="d" x1="148.47" y1="576.95" x2="179.44" y2="567.03"/>
    <line class="d" x1="133.27" y1="597.87" x2="133.27" y2="630.39"/>
    <line class="d" x1="151.92" y1="555.93" x2="161.95" y2="542.78"/>
    <line class="d" x1="163.96" y1="592.36" x2="179.4" y2="596.9"/>
    <line class="d" x1="152.12" y1="607.71" x2="161.89" y2="621.05"/>
    <line class="d" x1="114.42" y1="607.71" x2="104.62" y2="621.03"/>
    <line class="d" x1="102.82" y1="591.64" x2="87.15" y2="596.92"/>
    <line class="d" x1="102.23" y1="571.99" x2="87.11" y2="566.96"/>
    <line class="d" x1="114.4" y1="556.09" x2="104.69" y2="542.71"/>
    <text class="b" transform="translate(87.8 674.49) scale(1.05 0.91)">SUNBURST TREES</text>
  </g>
  <g>
    <text class="b" transform="translate(291.51 674.49) scale(1.05 0.91)">ICICLE TREES</text>
    <rect class="d" x="282.81" y="533.39" width="95.85" height="32.52"/>
    <rect class="c" x="282.81" y="597.8" width="95.85" height="31.83"/>
    <rect class="d" x="282.81" y="565.63" width="95.85" height="32.52"/>
    <rect class="d" x="282.81" y="598.15" width="9.95" height="31.14"/>
    <rect class="d" x="368.7" y="598.15" width="9.95" height="31.14"/>
    <rect class="c" x="292.76" y="598.15" width="8.9" height="31.14"/>
    <rect class="c" x="301.66" y="598.15" width="10.06" height="31.14"/>
    <rect class="c" x="311.72" y="598.15" width="8.73" height="31.14"/>
    <rect class="c" x="320.46" y="598.15" width="9.43" height="31.14"/>
    <rect class="c" x="329.89" y="598.15" width="9.35" height="31.14"/>
    <rect class="c" x="339.23" y="598.15" width="9.67" height="31.14"/>
    <rect class="c" x="348.91" y="598.15" width="9.68" height="31.14"/>
    <rect class="c" x="358.94" y="598.15" width="9.4" height="31.14"/>
    <rect class="c" x="301.66" y="566.35" width="28.23" height="31.8"/>
  </g>
</svg>
